# xmcd
#
# Track frame offsets:
#	150
#	14725
#	24715
#	44960
#	57317
#	68065
#	80327
#	97862
#	109907
#	125125
#	149275
#	176982
#	193130
#	208632
#	226515
#	247102
#	257902
#	285700
#	301260
#
# Disc length: 4197 seconds
#
# Revision: 0
# Processed by: cddbd v1.4PL0 Copyright (c) Steve Scherf et al.
# Submitted via: EasyCDDAExtractor 4.6.0.1
#
DISCID=22106313
DTITLE=Glen Campbell - Round Up  cd 1
DYEAR=1995
DGENRE=Country
TTITLE0=Rhinestone Cowboy
TTITLE1=Gentle On My Mind
TTITLE2=(a) Wichita Lineman  (b) Galveston  (c) Country Boy (you got your feet
TTITLE2=in LA)
TTITLE3=By The Time I Get To Phoenix
TTITLE4=Dreams Of The Everyday Housewife
TTITLE5=Heartache Number Three
TTITLE6=Please Come To Boston
TTITLE7=It's Only Make Believe
TTITLE8=Crying
TTITLE9=Blue Grass Medley
TTITLE10=Milk Cow Blues
TTITLE11=Rollin'  (in my sweet baby's arms)
TTITLE12=I'm So Lonesome I Could Cry
TTITLE13=Southern Nights
TTITLE14=Amazing Grace
TTITLE15=Try A Little Kindness
TTITLE16=Mull Of Kintyre
TTITLE17=If You Where My Lady  (With Diane Solomon)
TTITLE18=It's One To Grow On     (With Diane Solomon)
EXTD=
EXTT0=
EXTT1=
EXTT2=
EXTT3=
EXTT4=
EXTT5=
EXTT6=
EXTT7=
EXTT8=
EXTT9=
EXTT10=
EXTT11=
EXTT12=
EXTT13=
EXTT14=
EXTT15=
EXTT16=
EXTT17=
EXTT18=
PLAYORDER=
